Coordinates
version=1
nRows=27
nColumns=12
inDegrees=yes

Units are S.I. units (second, meters, Newtons, ...)
Angles are in degrees

endheader
time	SC_y	SC_z	SC_x	AC_y	AC_z	AC_x	GH_y	GH_z	GH_yy	EL_x	PS_y
       0.0              -15.52          14.46           9.24           52.2          9.474          10.03          -36.5         0.2304          102.8          12.56          15.31
   0.03999              -15.52          14.46          9.242           52.2          9.474          10.03         -36.52         0.2322          102.8          12.56          15.32
   0.07998              -15.53          14.46          9.244           52.2          9.474          10.03         -36.54         0.2341          102.8          12.56          15.34
      0.12              -15.53          14.45          9.246           52.2          9.474          10.04         -36.56         0.2361          102.8          12.56          15.35
      0.16              -15.54          14.45          9.248           52.2          9.474          10.04         -36.59         0.2382          102.7          12.57          15.36
       0.2              -15.55          14.45           9.25           52.2          9.474          10.04         -36.61         0.2405          102.7          12.57          15.38
      0.24              -15.55          14.44          9.252          52.19          9.474          10.04         -36.64         0.2429          102.7          12.57           15.4
    0.2799              -15.56          14.44          9.255          52.19          9.474          10.04         -36.67         0.2455          102.7          12.57          15.41
    0.3199              -15.57          14.44          9.257          52.19          9.474          10.04          -36.7         0.2482          102.7          12.58          15.43
    0.3599              -15.58          14.43           9.26          52.19          9.474          10.04         -36.73         0.2512          102.7          12.58          15.45
    0.3999              -15.59          14.43          9.263          52.18          9.474          10.04         -36.76         0.2544          102.7          12.58          15.48
    0.4399               -15.6          14.42          9.266          52.18          9.474          10.04          -36.8         0.2578          102.7          12.58           15.5
    0.4799              -15.61          14.42           9.27          52.18          9.474          10.05         -36.84         0.2615          102.7          12.59          15.53
    0.5199              -15.62          14.41          9.273          52.17          9.474          10.05         -36.89         0.2655          102.6          12.59          15.55
    0.5599              -15.63          14.41          9.278          52.17          9.474          10.05         -36.93         0.2699          102.6           12.6          15.58
    0.5999              -15.64           14.4          9.282          52.16          9.474          10.05         -36.98         0.2745          102.6           12.6          15.62
    0.6399              -15.66          14.39          9.287          52.16          9.474          10.05         -37.04         0.2796          102.6           12.6          15.65
    0.6799              -15.67          14.38          9.292          52.16          9.474          10.06          -37.1         0.2852          102.6          12.61          15.69
    0.7199              -15.69          14.37          9.298          52.15          9.474          10.06         -37.17         0.2913          102.5          12.61          15.73
    0.7599              -15.71          14.36          9.304          52.14          9.474          10.06         -37.24         0.2979          102.5          12.62          15.78
    0.7998              -15.73          14.35          9.311          52.14          9.474          10.06         -37.32         0.3052          102.5          12.63          15.83
    0.8398              -15.75          14.34          9.318          52.13          9.473          10.07         -37.41         0.3132          102.5          12.64          15.88
    0.8798              -15.78          14.33          9.327          52.12          9.473          10.07         -37.51         0.3221          102.4          12.64          15.94
    0.9198               -15.8          14.32          9.336          52.11          9.473          10.08         -37.61         0.3319          102.4          12.65          16.01
    0.9598              -15.84           14.3          9.346           52.1          9.473          10.08         -37.73         0.3428          102.4          12.66          16.09
    0.9998              -15.87          14.28          9.358          52.09          9.473          10.09         -37.87          0.355          102.3          12.67          16.17
      1.04              -15.91          14.26          9.371          52.08          9.473          10.09         -38.02         0.3686          102.3          12.69          16.27
